<svg id="Layer_1" data-name="Layer 1" xmlns="http://www.w3.org/2000/svg" viewBox="0 0 48 48"><defs><style>.cls-1{fill:#0d3b8d;}.cls-2{fill:#00286f;}.cls-3{fill:#1761b2;}.cls-4{fill:#ffc343;}.cls-5{fill:#ffa221;}.cls-6{fill:#08105e;}</style></defs><rect class="cls-1" x="4" y="13" width="40" height="30" rx="4" id="id_101"></rect><path class="cls-2" d="M44,17v6.22a2.252,2.252,0,0,1-.45.19L27,28.15H21L8,24.43V39a4,4,0,0,0,4,4H8a4,4,0,0,1-4-4V17a4,4,0,0,1,4-4H40A4,4,0,0,1,44,17Z" id="id_102"></path><path class="cls-3" d="M21,25.15,4.45,20.41A1.992,1.992,0,0,1,3,18.49V14a4,4,0,0,1,4-4H41a4,4,0,0,1,4,4v4.49a1.992,1.992,0,0,1-1.45,1.92L27,25.15Z" id="id_103"></path><path class="cls-1" d="M7,20.49V14a4,4,0,0,1,4-4H7a4,4,0,0,0-4,4v4.49a1.992,1.992,0,0,0,1.45,1.92l2.68.767A1.977,1.977,0,0,1,7,20.49Z" id="id_104"></path><rect class="cls-4" x="21" y="21" width="6" height="8" rx="2" id="id_105"></rect><path class="cls-5" d="M25,26H23a2,2,0,0,1-2-2v3a2,2,0,0,0,2,2h2a2,2,0,0,0,2-2V24A2,2,0,0,1,25,26Z" id="id_106"></path><path class="cls-6" d="M41,9H32V7a3,3,0,0,0-3-3H19a3,3,0,0,0-3,3V9H7a5.006,5.006,0,0,0-5,5v4.49a3,3,0,0,0,1,2.227V39a5.006,5.006,0,0,0,5,5H40a5.006,5.006,0,0,0,5-5V20.716a3,3,0,0,0,1-2.226V14A5.006,5.006,0,0,0,41,9ZM18,7a1,1,0,0,1,1-1H29a1,1,0,0,1,1,1V9H18ZM4,14a3,3,0,0,1,3-3H41a3,3,0,0,1,3,3v4.49a1,1,0,0,1-.726.959L28,23.824V23a3,3,0,0,0-3-3H23a3,3,0,0,0-3,3v.824L4.719,19.447A.993.993,0,0,1,4,18.49Zm22,9v4a1,1,0,0,1-1,1H23a1,1,0,0,1-1-1V23a1,1,0,0,1,1-1h2A1,1,0,0,1,26,23ZM40,42H8a3,3,0,0,1-3-3V21.608l15,4.3V27a3,3,0,0,0,3,3h2a3,3,0,0,0,3-3V25.9l15-4.3V39A3,3,0,0,1,40,42Z" id="id_107"></path></svg>