<svg width="512" height="512" viewBox="0 0 512 512" fill="none" xmlns="http://www.w3.org/2000/svg">
<path d="M440 272H352V256H436.686L458.343 234.344L469.657 245.657L445.657 269.657C444.914 270.4 444.032 270.989 443.061 271.392C442.091 271.794 441.051 272.001 440 272V272Z" fill="#C6C6C6" id="id_101"></path>
<path d="M264 208H248V107.314L218.344 77.6572L229.657 66.3438L261.657 98.3438C262.4 99.0866 262.989 99.9684 263.392 100.939C263.794 101.91 264.001 102.95 264 104V208Z" fill="#C6C6C6" id="id_102"></path>
<path d="M45.6572 285.657L34.3438 274.343L58.3438 250.343C59.0866 249.6 59.9684 249.011 60.939 248.609C61.9096 248.207 62.9499 248 64.0005 248H184V264H67.314L45.6572 285.657Z" fill="#C6C6C6" id="id_103"></path>
<path d="M282.343 461.657L250.343 429.657C249.6 428.914 249.011 428.032 248.609 427.061C248.207 426.091 248 425.051 248 424V288H264V420.686L293.657 450.343L282.343 461.657Z" fill="#C6C6C6" id="id_104"></path>
<path d="M435.877 301.366L359.755 321.666C352.942 323.482 346.92 327.498 342.624 333.09C338.329 338.681 336 345.535 336 352.585V376L320 408H336V440.912C336 443.498 336.626 446.044 337.826 448.335C339.025 450.625 340.762 452.591 342.886 454.063C345.011 455.536 347.462 456.471 350.027 456.79C352.593 457.109 355.197 456.801 357.618 455.894L376 444.403V496H440V424L447.155 420.423C449.813 419.094 452.048 417.051 453.61 414.524C455.173 411.996 456 409.083 456 406.112V316.826C456 314.374 455.436 311.954 454.352 309.754C453.268 307.554 451.693 305.633 449.748 304.138C447.803 302.644 445.541 301.617 443.136 301.136C440.731 300.656 438.247 300.734 435.877 301.366V301.366Z" fill="#6FBCA2" id="id_105"></path>
<path d="M400 24L312 80V216H488V80L400 24Z" fill="#E4A589" id="id_106"></path>
<path d="M464 168H424V184H464V168Z" fill="#BEBEBE" id="id_107"></path>
<path d="M376 368H352C350.95 368.001 349.91 367.794 348.939 367.392C347.968 366.989 347.087 366.4 346.344 365.657L306.344 325.657L317.657 314.344L355.314 352H376V368Z" fill="#AFDDCA" id="id_108"></path>
<path d="M416 360H392V344H412.687L474.343 282.344L485.657 293.657L421.657 357.657C420.914 358.4 420.032 358.989 419.061 359.392C418.091 359.794 417.051 360.001 416 360V360Z" fill="#AFDDCA" id="id_109"></path>
<path d="M381.657 413.657L370.344 402.343L394.344 378.343C395.087 377.6 395.968 377.011 396.939 376.609C397.91 376.207 398.95 376 400 376H496V392H403.314L381.657 413.657Z" fill="#AFDDCA" id="id_110"></path>
<path d="M184 40H40C31.1634 40 24 47.1634 24 56V184C24 192.837 31.1634 200 40 200H184C192.837 200 200 192.837 200 184V56C200 47.1634 192.837 40 184 40Z" fill="#6FBCA2" id="id_111"></path>
<path d="M24 80H200V56C200 51.7565 198.314 47.6869 195.314 44.6863C192.313 41.6857 188.243 40 184 40H40C35.7565 40 31.6869 41.6857 28.6863 44.6863C25.6857 47.6869 24 51.7565 24 56V80Z" fill="#53A58E" id="id_112"></path>
<path d="M96 112H128V160H144L112 200L80 160H96V112Z" fill="#AFDDCA" id="id_113"></path>
<path d="M204.438 377.344L195.562 390.656L219.563 406.656L228.438 393.344L204.438 377.344Z" fill="#FCD5CD" id="id_114"></path>
<path d="M224 336H200V352H224V336Z" fill="#FCD5CD" id="id_115"></path>
<path d="M116.95 296.07C105.558 296.615 94.5173 300.195 84.972 306.438C75.4266 312.681 67.7228 321.361 62.6578 331.581C57.5927 341.8 55.3503 353.188 56.1625 364.564C56.9748 375.941 60.8123 386.894 67.2779 396.291C85.608 422.869 96.0008 454.108 96.0008 486.395V487.999H144.001V486.396C144.001 454.066 154.494 422.837 172.796 396.185C179.529 386.358 183.386 374.846 183.933 362.946C184.48 351.045 181.695 339.229 175.892 328.825C170.089 318.421 161.497 309.844 151.084 304.057C140.671 298.27 128.85 295.504 116.95 296.07Z" fill="#E4A589" id="id_116"></path>
<path d="M112 448L96 376L120 360L144 376L128 448" fill="#CE907A" id="id_117"></path>
<path d="M35.5625 377.344L11.5625 393.344L20.4375 406.656L44.4375 390.656L35.5625 377.344Z" fill="#FCD5CD" id="id_118"></path>
<path d="M28.4375 289.344L19.5625 302.656L43.5625 318.656L52.4375 305.344L28.4375 289.344Z" fill="#FCD5CD" id="id_119"></path>
<path d="M40 336H16V352H40V336Z" fill="#FCD5CD" id="id_120"></path>
<path d="M72 16H56V48H72V16Z" fill="#6FBCA2" id="id_121"></path>
<path d="M168 16H152V48H168V16Z" fill="#6FBCA2" id="id_122"></path>
<path d="M95.999 486.395V488H143.999V486.397C144.012 473.439 145.678 460.536 148.957 448H91.0664C94.331 460.538 95.9885 473.44 95.999 486.395V486.395Z" fill="#CE907A" id="id_123"></path>
<path d="M296 264V296H344C348.243 296 352.313 294.314 355.314 291.314C358.314 288.313 360 284.243 360 280V264H296Z" fill="#BEBEBE" id="id_124"></path>
<path d="M283.476 203.295C282.47 200.024 280.442 197.163 277.689 195.13C274.937 193.097 271.605 192 268.184 192H173.664C171.16 192 168.691 192.588 166.456 193.716C164.221 194.844 162.281 196.48 160.794 198.494C159.306 200.508 158.312 202.843 157.892 205.312C157.471 207.78 157.635 210.312 158.372 212.705L180.525 284.705C181.532 287.976 183.56 290.837 186.312 292.87C189.065 294.903 192.396 296 195.818 296H312.001L283.476 203.295Z" fill="#DFDFDF" id="id_125"></path>
<path d="M232 264C240.837 264 248 256.837 248 248C248 239.163 240.837 232 232 232C223.163 232 216 239.163 216 248C216 256.837 223.163 264 232 264Z" fill="#BEBEBE" id="id_126"></path>
<path d="M424 112H344L360 176H440L424 112Z" fill="#DFDFDF" id="id_127"></path>
<path d="M400 136H384V152H400V136Z" fill="#BEBEBE" id="id_128"></path>
<path d="M389.701 435.319L380.682 438.701C376.545 440.252 374.449 444.863 376 449C377.552 453.137 382.163 455.234 386.3 453.682L395.319 450.3C399.456 448.749 401.552 444.137 400 440C398.449 435.863 393.838 433.767 389.701 435.319Z" fill="#53A58E" id="id_129"></path>
<path d="M464 316.826C464 316.334 463.984 315.846 463.955 315.359L485.657 293.657L474.344 282.344L456.9 299.787C456.183 299.076 455.422 298.411 454.622 297.794C451.711 295.542 448.317 293.994 444.707 293.273C441.098 292.551 437.37 292.676 433.816 293.637L357.694 313.936C348.047 316.513 339.713 322.606 334.331 331.018L317.657 314.344L306.344 325.657L328.31 347.624C328.104 349.27 328.001 350.927 328 352.585V374.112L312.845 404.423C312.235 405.643 311.947 406.998 312.009 408.36C312.07 409.722 312.478 411.046 313.195 412.206C313.912 413.366 314.914 414.324 316.105 414.988C317.296 415.652 318.637 416.001 320 416H328V440.913C328 444.791 328.94 448.611 330.739 452.046C332.538 455.482 335.143 458.43 338.33 460.639C341.518 462.848 345.193 464.251 349.041 464.729C352.89 465.208 356.797 464.746 360.428 463.384L368 460.544V496H384V454.545L402.81 447.491L397.191 432.51L354.81 448.403C353.599 448.857 352.297 449.011 351.014 448.851C349.731 448.692 348.506 448.224 347.444 447.488C346.381 446.752 345.513 445.769 344.913 444.624C344.314 443.479 344 442.205 344 440.913V408C344 406.95 343.794 405.91 343.392 404.939C342.99 403.968 342.4 403.086 341.657 402.344C340.915 401.601 340.033 401.011 339.062 400.609C338.091 400.207 337.051 400 336 400H332.945L343.156 379.578C343.711 378.467 344.001 377.242 344 376V363.314L346.344 365.657C347.087 366.4 347.968 366.989 348.939 367.392C349.91 367.794 350.95 368.001 352 368H376V352H355.314L346.103 342.789C347.562 339.529 349.729 336.635 352.447 334.318C355.166 332.001 358.367 330.319 361.817 329.396L437.939 309.097C439.124 308.776 440.366 308.735 441.57 308.975C442.773 309.216 443.904 309.732 444.875 310.482C445.124 310.674 445.362 310.88 445.588 311.1L412.687 344H392V360H416C417.051 360.001 418.091 359.794 419.062 359.392C420.033 358.989 420.914 358.4 421.657 357.657L448 331.314V376H400C398.95 376 397.91 376.207 396.939 376.609C395.968 377.011 395.087 377.601 394.344 378.344L370.344 402.344L381.657 413.657L403.314 392H448V406.112C448.005 407.599 447.594 409.057 446.812 410.322C446.03 411.587 444.91 412.607 443.578 413.268L436.423 416.845C435.094 417.51 433.976 418.531 433.195 419.795C432.414 421.058 432 422.515 432 424V496H448V428.945L450.733 427.578C454.73 425.597 458.091 422.536 460.436 418.742C462.781 414.947 464.016 410.572 464 406.112V392H496V376H464V316.826Z" fill="#1E556B" id="id_130"></path>
<path d="M492.295 73.2502L404.295 17.2502C403.011 16.4337 401.521 16 400 16C398.479 16 396.989 16.4337 395.705 17.2502L307.705 73.2502C306.57 73.9728 305.635 74.9702 304.987 76.15C304.34 77.3298 304 78.6539 304 79.9998V192H320V84.3914L400 33.4822L480 84.3914V208H320V224H488C489.051 224 490.091 223.793 491.061 223.391C492.032 222.989 492.914 222.4 493.657 221.657C494.4 220.914 494.989 220.032 495.391 219.061C495.793 218.091 496 217.05 496 216V79.9998C496 78.6539 495.66 77.3298 495.013 76.15C494.365 74.9702 493.43 73.9728 492.295 73.2502V73.2502Z" fill="#1E556B" id="id_131"></path>
<path d="M360 184H464V168H446.246L431.761 110.06C431.328 108.329 430.33 106.792 428.923 105.694C427.517 104.596 425.784 104 424 104H344C342.784 104 341.585 104.277 340.492 104.81C339.399 105.343 338.443 106.118 337.694 107.077C336.946 108.035 336.426 109.151 336.174 110.341C335.922 111.53 335.944 112.761 336.239 113.94L352.239 177.94C352.672 179.671 353.671 181.208 355.077 182.306C356.483 183.404 358.216 184 360 184V184ZM417.754 120L429.754 168H366.246L354.246 120H417.754Z" fill="#1E556B" id="id_132"></path>
<path d="M400 136H384V152H400V136Z" fill="#1E556B" id="id_133"></path>
<path d="M268.184 184H264V104C264.001 102.95 263.794 101.91 263.392 100.939C262.989 99.9684 262.4 99.0866 261.657 98.3438L229.657 66.3438L218.344 77.6572L248 107.314V184H173.664C169.908 184 166.205 184.882 162.852 186.574C159.499 188.266 156.59 190.721 154.359 193.742C152.127 196.763 150.636 200.266 150.005 203.968C149.374 207.67 149.621 211.469 150.725 215.059L160.861 248H64.0005C62.9499 248 61.9096 248.207 60.939 248.609C59.9684 249.011 59.0866 249.601 58.3438 250.344L34.3438 274.344L45.6572 285.657L67.314 264H165.784L172.879 287.059C174.371 291.974 177.409 296.278 181.542 299.33C185.674 302.382 190.681 304.02 195.818 304H248V424C248 425.051 248.207 426.091 248.609 427.062C249.011 428.033 249.601 428.914 250.344 429.657L282.344 461.657L293.657 450.344L264 420.686V304H344C350.363 303.993 356.464 301.462 360.963 296.963C365.462 292.464 367.993 286.363 368 280V272H440C441.051 272.001 442.091 271.794 443.062 271.392C444.033 270.989 444.914 270.4 445.657 269.657L469.657 245.657L458.344 234.344L436.686 256H308.063L291.122 200.943V200.942C289.63 196.027 286.592 191.724 282.459 188.672C278.327 185.619 273.321 183.981 268.184 184V184ZM352 272V280C351.998 282.121 351.154 284.155 349.655 285.655C348.155 287.154 346.121 287.998 344 288H317.909L312.986 272H352ZM301.169 288H195.818C194.106 288.007 192.437 287.461 191.059 286.444C189.682 285.426 188.669 283.992 188.172 282.353L166.018 210.353C165.649 209.156 165.567 207.89 165.777 206.656C165.988 205.422 166.485 204.254 167.229 203.247C167.972 202.24 168.942 201.422 170.06 200.858C171.178 200.294 172.412 200 173.664 200H268.184C269.896 199.994 271.565 200.54 272.943 201.558C274.32 202.575 275.333 204.01 275.83 205.648L301.169 288Z" fill="#1E556B" id="id_134"></path>
<path d="M232 224C227.253 224 222.613 225.408 218.666 228.045C214.72 230.682 211.643 234.43 209.827 238.816C208.01 243.201 207.535 248.027 208.461 252.682C209.387 257.338 211.673 261.614 215.029 264.971C218.386 268.327 222.662 270.613 227.318 271.539C231.973 272.465 236.799 271.99 241.184 270.173C245.57 268.357 249.318 265.28 251.955 261.334C254.592 257.387 256 252.747 256 248C255.993 241.637 253.462 235.537 248.963 231.037C244.463 226.538 238.363 224.007 232 224V224ZM232 256C230.418 256 228.871 255.531 227.555 254.652C226.24 253.773 225.214 252.523 224.609 251.061C224.003 249.6 223.845 247.991 224.154 246.439C224.462 244.887 225.224 243.462 226.343 242.343C227.462 241.224 228.887 240.462 230.439 240.154C231.991 239.845 233.6 240.003 235.061 240.609C236.523 241.214 237.773 242.24 238.652 243.555C239.531 244.871 240 246.418 240 248C239.998 250.121 239.154 252.154 237.654 253.654C236.154 255.154 234.121 255.998 232 256V256Z" fill="#1E556B" id="id_135"></path>
<path d="M40 208H80V192H40C37.879 191.998 35.8456 191.154 34.3458 189.654C32.8461 188.154 32.0024 186.121 32 184V88H192V168H208V56C207.993 49.637 205.462 43.5368 200.963 39.0375C196.463 34.5382 190.363 32.0073 184 32H168V16H152V32H72V16H56V32H40C33.637 32.0073 27.5368 34.5382 23.0375 39.0375C18.5382 43.5368 16.0073 49.637 16 56V184C16.0073 190.363 18.5382 196.463 23.0375 200.963C27.5368 205.462 33.637 207.993 40 208ZM32 56C32.0024 53.879 32.8461 51.8456 34.3458 50.3458C35.8456 48.8461 37.879 48.0024 40 48H56V56H72V48H152V56H168V48H184C186.121 48.0024 188.154 48.8461 189.654 50.3458C191.154 51.8456 191.998 53.879 192 56V72H32V56Z" fill="#1E556B" id="id_136"></path>
<path d="M128 104H96C94.9494 104 93.9091 104.207 92.9385 104.609C91.9679 105.011 91.0859 105.6 90.3431 106.343C89.6002 107.086 89.0109 107.968 88.6089 108.938C88.2069 109.909 88 110.949 88 112V152H80C78.4931 152 77.0168 152.426 75.7412 153.228C74.4655 154.03 73.4424 155.176 72.7896 156.535C72.1368 157.893 71.8809 159.408 72.0513 160.905C72.2218 162.402 72.8116 163.821 73.7529 164.998L105.753 204.998C106.502 205.934 107.453 206.691 108.534 207.21C109.616 207.73 110.8 208 112 208C113.2 208 114.384 207.73 115.466 207.21C116.547 206.691 117.498 205.934 118.247 204.998L150.247 164.998C151.188 163.821 151.778 162.402 151.949 160.905C152.119 159.408 151.863 157.893 151.21 156.535C150.558 155.176 149.534 154.03 148.259 153.228C146.983 152.426 145.507 152 144 152H136V112C136 110.949 135.793 109.909 135.391 108.938C134.989 107.968 134.4 107.086 133.657 106.343C132.914 105.6 132.032 105.011 131.061 104.609C130.091 104.207 129.051 104 128 104V104ZM112 187.194L96.6255 167.976C98.6328 167.818 100.507 166.91 101.874 165.431C103.241 163.953 104 162.013 104 160V120H120V160C120 162.013 120.759 163.953 122.126 165.431C123.493 166.91 125.367 167.818 127.374 167.976L112 187.194Z" fill="#1E556B" id="id_137"></path>
<path d="M204.437 377.344L195.562 390.656L219.563 406.656L228.437 393.344L204.437 377.344Z" fill="#1E556B" id="id_138"></path>
<path d="M224 336H200V352H224V336Z" fill="#1E556B" id="id_139"></path>
<path d="M96.0009 496H144.001C145.051 496 146.092 495.793 147.062 495.391C148.033 494.989 148.915 494.4 149.658 493.657C150.401 492.914 150.99 492.032 151.392 491.061C151.794 490.091 152.001 489.051 152.001 488V486.397C152.001 456.437 161.472 426.809 179.391 400.714C186.807 389.895 191.126 377.255 191.882 364.16C192.638 351.065 189.803 338.013 183.683 326.411C177.562 314.81 168.388 305.101 157.153 298.333C145.917 291.565 133.046 287.995 119.929 288.008C106.812 288.021 93.9482 291.617 82.7259 298.408C71.5037 305.198 62.3497 314.925 56.2523 326.539C50.1549 338.152 47.3458 351.211 48.1283 364.304C48.9108 377.397 53.2551 390.028 60.6923 400.833C78.558 426.738 88.0009 456.325 88.0009 486.395V488C88.0009 489.051 88.2078 490.091 88.6098 491.061C89.0118 492.032 89.6011 492.914 90.344 493.657C91.0869 494.4 91.9688 494.989 92.9394 495.391C93.91 495.793 94.9503 496 96.0009 496V496ZM136.13 480H103.873C103.545 471.941 102.611 463.919 101.079 456H138.943C137.402 463.918 136.462 471.941 136.13 480ZM104.999 379.616L120.001 369.615L135.002 379.616L121.583 440H118.418L104.999 379.616ZM73.8637 391.749C68.0825 383.345 64.7064 373.522 64.1001 363.339C63.4937 353.157 65.68 343.002 70.4231 333.971C75.1661 324.941 82.2856 317.377 91.0131 312.097C99.7406 306.817 109.745 304.021 119.945 304.01C130.145 304 140.155 306.776 148.893 312.039C157.631 317.302 164.766 324.851 169.527 333.872C174.288 342.894 176.494 353.044 175.908 363.227C175.322 373.411 171.966 383.241 166.202 391.657C155.971 406.466 148.103 422.775 142.878 440H137.974L151.811 377.735C152.161 376.16 152.026 374.515 151.424 373.017C150.822 371.52 149.782 370.239 148.439 369.344L124.439 353.344C123.125 352.467 121.58 352 120.001 352C118.422 352 116.878 352.467 115.564 353.344L91.5635 369.344C90.2205 370.239 89.1796 371.52 88.5778 373.017C87.976 374.515 87.8413 376.16 88.1914 377.735L102.028 440H97.159C91.9628 422.798 84.1023 406.517 73.8637 391.749V391.749Z" fill="#1E556B" id="id_140"></path>
<path d="M35.5625 377.344L11.5625 393.344L20.4375 406.656L44.4375 390.656L35.5625 377.344Z" fill="#1E556B" id="id_141"></path>
<path d="M28.4375 289.344L19.5625 302.656L43.5625 318.656L52.4375 305.344L28.4375 289.344Z" fill="#1E556B" id="id_142"></path>
<path d="M40 336H16V352H40V336Z" fill="#1E556B" id="id_143"></path>
</svg>